<?xml version="1.0" encoding="UTF-8"?>
<svg data-bbox="95.09 79.419 476.302 510.027" xmlns="http://www.w3.org/2000/svg" xmlns:xlink="http://www.w3.org/1999/xlink" viewBox="0 0 665 631" height="605.76" width="638.4" data-type="ugc">
    <g>
        <defs>
            <linearGradient id="edea4b67-9a23-4b8d-a614-f874ecd29d4d">
                <stop offset="0" stop-color="#00b5f8"/>
                <stop offset="1" stop-color="#5e16eb"/>
            </linearGradient>
            <linearGradient id="2323b291-34be-4852-a9b3-9f93afe87a64">
                <stop offset="0" stop-color="#00b5f8"/>
                <stop offset="1" stop-color="#5e16eb" stop-opacity=".998"/>
            </linearGradient>
            <linearGradient gradientUnits="userSpaceOnUse" y2="271.023" x2="443.64" y1="77.108" x1="119.817" id="59d8bc90-4783-4dd2-b043-2efbd7042288" xlink:href="#2323b291-34be-4852-a9b3-9f93afe87a64"/>
            <linearGradient gradientUnits="userSpaceOnUse" y2="355.467" x2="146.515" y1="589.28" x1="328.72" id="6fabcd62-1506-4263-9df9-66179504b5ed" xlink:href="#edea4b67-9a23-4b8d-a614-f874ecd29d4d"/>
            <linearGradient gradientUnits="userSpaceOnUse" y2="620.806" x2="297.542" y1="355.564" x1="495.11" id="9276c8e9-50d1-4ea8-976e-c4bfc3e972bd" xlink:href="#2323b291-34be-4852-a9b3-9f93afe87a64"/>
        </defs>
        <path d="M329.1 79.419 548.72 208.28 329.104 335.338 107.72 206.28Z" style="mix-blend-mode:multiply" fill="url(#59d8bc90-4783-4dd2-b043-2efbd7042288)" stroke="#b868fe"/>
        <path d="m107.72 206.28 221.384 129.058-.384 253.942-.132.166-220.33-127.058-1.031-255.826z" fill="url(#6fabcd62-1506-4263-9df9-66179504b5ed)" stroke="#b868fe"/>
        <path d="M329.104 335.338 548.72 208.28l.48.288-.339 254.347-220.006 126.524-.135-.159z" fill="url(#9276c8e9-50d1-4ea8-976e-c4bfc3e972bd)" stroke="#b868fe"/>
        <path d="M426.75 269.542c-2.304 1.871-4.26 3.587-7.166 4.471-6.562 1.984-13.349-2.26-15.508-8.582-.912-2.693-.86-5.427-.87-8.223v-47.28c.01-5.654.072-10.577 3.89-15.203 5.69-6.917 17.39-6.65 23.174 0 5.61 6.435 4.668 17.484 4.668 25.48h-11.26c0-4.193.512-12.889-1.975-16.24-.789-1.058-1.73-1.85-3.143-1.623-4.381.699-4.084 7.462-4.054 10.669v40.086l.07 3.727c.892 3.17 2.237 3.756 4.045 3.81 1.926.056 3.218-1.033 4.171-3.657 0 0 .252-9.606.313-12.83-.322-2.83-2.982-2.21-4.544-2.357v-9.25h16.378v41.114s-4.833.397-5.27-.19zm-251.816-79.144h27.638v12.334h-15.354v22.613h11.26v12.334h-11.26v23.64h15.354v12.335h-27.638zm53.23 0c2.435 0 9.72.027 9.72.027l14.847 47.253v-47.28h10.236v83.255H252.73l-13.308-47.28-1.023 47.28h-10.237zm63.465 0h26.614v12.334H302.89v22.613h11.26v12.334h-11.26v23.64h15.354v12.335H291.63zm53.229 0c13.778 0 27.526-1.881 31.2 15.418 1.084 7.321.677 15.928-1.617 21.585-1.423 3.422-3.419 5.406-3.409 9.25l6.583 37.003-10.7-.128-6.702-34.82h-4.095v34.948h-11.26Zm11.26 37.003c2.211-.257 3.89-.298 5.743-1.789 4.514-3.638 4.552-17.59.786-21.733-1.986-2.179-6.529-2.175-6.529-2.175zM180.052 366.16c.543 2.99 1.249 8.818 2.917 11.151 3.808 5.304 7.975.679 8.732-3.957.88-5.458-4.156-13.146-7.135-17.473-5.65-8.234-13-18.502-13.635-28.78-.665-10.937 5.221-21.297 17.31-20.454 3.317.226 6.47 1.182 9.019 3.412 5.077 4.41 5.824 11.748 6.336 18.07l-11.26 1.028c-.553-2.96-1.33-8.912-4.31-10.371-3.593-1.768-7.022 4.162-4.934 10.37 4.054 12.098 19.04 24.659 20.31 40.086.634 7.576-2.324 17.854-10.043 20.825-2.22.853-5.793.801-8.189.75-3.49-.092-6.254-.37-9.161-2.57-6.224-4.728-5.968-13.053-7.217-20.032zm114.648 0c.03 3.782.061 10.082 3.49 12.549 4.023 2.878 8.773-2.498 7.37-9.467-3.09-15.325-24.567-27.803-19.674-50.364 2.907-13.413 17.934-15.171 25.14-8.963 5.518 4.749 6.132 11.4 6.194 18.214l-11.26 1.028c-.083-3.27-.236-8.408-3.46-10.32-5.753-3.412-5.968 7.246-5.108 10.32 3.46 12.272 19.398 23.969 19.818 41.113.133 5.88-.39 11.697-4.484 16.312-5.006 5.633-18.415 5.941-23.82.761-5.272-5.057-5.466-13.372-5.466-20.156zm-69.608-58.588 10.765.208 8.684 26.516 5.119-26.724h11.26l-12.284 54.476.168 28.73-11.428.05v-28.78c-.02-11.224-8.773-42.326-12.284-54.475zm113.624 0h34.804v11.306h-11.26l.348 71.493-12.353.07s-.279-48.352-.279-71.563h-11.26zm58.348 0h27.638v11.306c-3.47 0-16.272.037-16.272.037l.07 23.492s8.249.1 11.085.111v12.334h-11.26v23.641h16.377v12.334l-28.035.094s.397-56.203.397-83.35zm53.229 0h14.33l8.19 42.141c2.236-14.253 5.105-28.26 9.075-42.102l13.445-.039.07 82.557-11.12.02-1.233-55.853-7.702 55.972-5.606.02-9.212-55.993v56.182c-2.314-.01-10.091-.084-10.091-.084s-.146-17.4-.146-21.151zM106.35 483.335c.614 3.392 1.31 10.546 4.494 12.375 3.624 2.076 8.547-2.888 6.684-10.32-3.255-13.002-22.899-28.08-20.084-47.28 1.423-9.693 6.265-14.39 16.072-14.38 3.664 0 6.141.133 9.171 2.487 5.794 4.502 6.316 11.317 7.207 18.06-2.71.4-10.872-.05-10.872-.05s-2.722-13.992-8.854-6.982l-1.003 1.912c-1.965 5.304 2.6 12.19 5.374 16.425 5.896 8.994 14.25 19.776 15.16 30.835.39 4.698-1.28 12.694-4.33 16.333-5.384 6.444-17.678 7.082-23.922 1.593-5.282-4.625-5.65-13.372-6.357-19.981zm58.348-58.947c13.798-2.868 21.322 3.844 21.496 17.833v44.197c-.02 11.358-3.808 22.48-17.402 21.482-11.813-.863-14.31-10.453-14.33-20.454v-45.225c.102-8.357 2.118-14.38 10.236-17.833zm49.134-.669h11.26v72.978h16.378v10.278h-27.638zm51.182 0h11.26v59.616c.207 5.313.019 10.711 4.488 10.657 4.431-.128 4.516-5.734 4.614-10.667l.049-59.606h11.321v63.727c-.02 11.584-3.818 21.451-17.402 20.454-12.14-.884-14.31-11.368-14.33-21.482zm55.277 0h34.803v12.335l-11.538.14.14 70.781-11.678-.14.239-70.642-11.966-.14zm58.347 0h11.26l1.024 31.864v51.392h-12.284zm49.135.669c8.762-1.82 17.658-.053 20.677 9.61 1.229 3.937.82 13.907.82 18.501v34.947c-.02 11.656-3.665 21.482-17.403 20.454-11.526-.863-14.29-11.82-14.33-21.482v-40.086c.01-9.168.818-17.884 10.236-21.944zm49.134-.669h10.237L501.474 471v-47.28h10.237v83.255c-2.344 0-9.696-.128-9.696-.128l-14.871-47.153v47.281h-10.237zm71.655 59.616c.083 3.762.338 9.168 3.49 11.779 4.239 3.515 9.009-1.953 7.371-9.724-2.743-12.992-24.342-28.45-19.531-49.336 2.14-9.313 7.82-12.55 16.86-12.314 3.254.082 5.445.34 8.086 2.477 6.05 4.913 6.234 12.016 6.244 19.087h-11.26c-.061-2.415.01-4.954-1.197-7.133-3.614-6.506-9.592-1.418-7.442 7.133 3.695 14.75 24.649 27.413 19.357 50.365-3.44 14.924-20.34 14.43-26.983 8.819-5.682-4.79-6.234-13.229-6.255-20.125zM170.778 435.2c-3.82-.073-4.995 4.554-5.057 9.076v41.114c0 3.084-.532 10.66 4.156 10.66 1.71 0 3.03-1.193 3.86-2.59 1.73-2.94 1.197-11.575 1.197-15.265v-33.919c-.06-4.43-1.046-8.85-4.156-9.076zm263.086 0c-4.96.002-5.057 5.246-5.068 10.025v42.241c.308 5.18.777 8.485 4.87 8.583 3.613 0 4.007-4.59 4.343-8.603v-43.17c-.062-4.42-.505-8.84-4.145-9.076zm22.076-245.6 10.765.209 8.684 26.516 5.118-26.724h11.26l-12.283 54.475.168 28.73-11.428.051.048-28.335c-1.828-19.854-7.85-35.595-12.333-54.92z" stroke-width="1.026" stroke="#c1aeff" fill="#c1aeff"/>
        <path d="M424.896 271.019c-2.25 1.82-4.16 3.49-7 4.35-6.41 1.93-13.04-2.2-15.15-8.35-.89-2.62-.84-5.28-.85-8v-46c.01-5.5.07-10.29 3.8-14.79 5.56-6.73 16.99-6.47 22.64 0 5.48 6.26 4.56 17.01 4.56 24.79h-11c0-4.08.5-12.54-1.93-15.8-.77-1.03-1.69-1.8-3.07-1.58-4.28.68-3.99 7.26-3.96 10.38v39l.068 3.626c.87 3.085 2.184 3.655 3.95 3.706 1.883.055 3.145-1.004 4.076-3.557 0 0 .246-9.345.305-12.482-.314-2.754-2.913-2.151-4.44-2.293v-9h16v40s-4.72.387-5.147-.184zm-246-77h27v12h-15v22h11v12h-11v23h15v12h-27zm52 0c2.38 0 9.496.027 9.496.027l14.504 45.973v-46h10v81h-10l-13-46-1 46h-10zm62 0h26v12h-15v22h11v12h-11v23h15v12h-26zm52 0c13.46 0 26.89-1.83 30.48 15 1.058 7.123.66 15.497-1.58 21-1.39 3.33-3.34 5.26-3.33 9l6.43 36-10.452-.125-6.548-33.875h-4v34h-11zm11 36c2.16-.25 3.8-.29 5.61-1.74 4.41-3.54 4.448-17.114.768-21.144-1.94-2.12-6.378-2.116-6.378-2.116zm-172 135c.53 2.91 1.22 8.58 2.85 10.85 3.72 5.16 7.79.66 8.53-3.85.86-5.31-4.06-12.79-6.97-17-5.52-8.01-12.7-18-13.32-28-.65-10.64 5.1-20.72 16.91-19.9 3.24.22 6.32 1.15 8.81 3.32 4.96 4.29 5.69 11.43 6.19 17.58l-11 1c-.54-2.88-1.3-8.67-4.21-10.09-3.51-1.72-6.86 4.05-4.82 10.09 3.96 11.77 18.6 23.99 19.84 39 .62 7.37-2.27 17.37-9.81 20.26-2.17.83-5.66.78-8 .73-3.41-.09-6.11-.36-8.95-2.5-6.08-4.6-5.83-12.7-7.05-19.49zm112 0c.03 3.68.06 9.81 3.41 12.21 3.93 2.8 8.57-2.43 7.2-9.21-3.02-14.91-24-27.05-19.22-49 2.84-13.05 17.52-14.76 24.56-8.72 5.39 4.62 5.99 11.09 6.05 17.72l-11 1c-.08-3.18-.23-8.18-3.38-10.04-5.62-3.32-5.83 7.05-4.99 10.04 3.38 11.94 18.95 23.32 19.36 40 .13 5.72-.38 11.38-4.38 15.87-4.89 5.48-17.99 5.78-23.27.74-5.15-4.92-5.34-13.01-5.34-19.61zm-68-57 10.516.203 8.484 25.797 5-26h11l-12 53 .164 27.952-11.164.048v-28c-.02-10.92-8.57-41.18-12-53zm111 0h34v11h-11l.34 69.556-12.068.068s-.272-47.042-.272-69.624h-11zm57 0h27v11c-3.39 0-15.896.036-15.896.036l.068 22.856s8.058.098 10.828.108v12h-11v23h16v12l-27.388.092s.388-54.681.388-81.092zm52 0h14l8 41c2.185-13.868 4.986-27.496 8.866-40.962l13.134-.038.068 80.32-10.864.02-1.204-54.34-7.524 54.456-5.476.02-9-54.476v54.66c-2.26-.01-9.858-.082-9.858-.082s-.142-16.928-.142-20.578zm-336 171c.6 3.3 1.28 10.26 4.39 12.04 3.54 2.02 8.35-2.81 6.53-10.04-3.18-12.65-22.37-27.32-19.62-46 1.39-9.43 6.12-14 15.7-13.99 3.58 0 6 .13 8.96 2.42 5.66 4.38 6.17 11.01 7.04 17.57-2.648.39-10.62-.048-10.62-.048s-2.66-13.612-8.65-6.792l-.98 1.86c-1.92 5.16 2.54 11.86 5.25 15.98 5.76 8.75 13.92 19.24 14.81 30 .38 4.57-1.25 12.35-4.23 15.89-5.26 6.27-17.27 6.89-23.37 1.55-5.16-4.5-5.52-13.01-6.21-19.44zm57-57.35c13.48-2.79 20.83 3.74 21 17.35v43c-.02 11.05-3.72 21.87-17 20.9-11.54-.84-13.98-10.17-14-19.9v-44c.1-8.13 2.07-13.99 10-17.35zm48-.65h11v71h16v10h-27zm50 0h11v58c.202 5.17.018 10.421 4.384 10.369 4.329-.125 4.412-5.58 4.508-10.379l.048-57.99h11.06v62c-.02 11.27-3.73 20.87-17 19.9-11.86-.86-13.98-11.06-14-20.9zm54 0h34v12l-11.272.136.136 68.864-11.408-.136.233-68.728-11.69-.136zm57 0h11l1 31v50h-12zm48 .65c8.56-1.77 17.25-.05 20.2 9.35 1.2 3.83.8 13.53.8 18v34c-.02 11.34-3.58 20.9-17 19.9-11.26-.84-13.96-11.5-14-20.9v-39c.01-8.92.8-17.4 10-21.35zm48-.65h10l14 46v-46h10v81c-2.29 0-9.472-.125-9.472-.125l-14.528-45.875v46h-10zm70 58c.08 3.66.33 8.92 3.41 11.46 4.14 3.42 8.8-1.9 7.2-9.46-2.68-12.64-23.78-27.68-19.08-48 2.09-9.06 7.64-12.21 16.47-11.98 3.18.08 5.32.33 7.9 2.41 5.91 4.78 6.09 11.69 6.1 18.57h-11c-.06-2.35.01-4.82-1.17-6.94-3.53-6.33-9.37-1.38-7.27 6.94 3.61 14.35 24.08 26.67 18.91 49-3.36 14.52-19.87 14.04-26.36 8.58-5.55-4.66-6.09-12.87-6.11-19.58zm-369.06-46.83c-3.732-.072-4.88 4.43-4.94 8.83v40c0 3-.52 10.37 4.06 10.37 1.67 0 2.96-1.16 3.77-2.52 1.69-2.86 1.17-11.26 1.17-14.85v-33c-.06-4.31-1.022-8.61-4.06-8.83zm257.01 0c-4.845.002-4.94 5.103-4.95 9.753v41.096c.3 5.04.758 8.256 4.758 8.351 3.529 0 3.913-4.466 4.242-8.37v-42c-.06-4.3-.493-8.6-4.05-8.83zm21.567-238.946 10.516.203 8.484 25.797 5-26h11l-12 53 .164 27.952-11.164.048.048-27.567c-1.786-19.316-7.67-34.631-12.048-53.433z" stroke="#ffffff" fill="#ffffff"/>
    </g>
</svg>
