<svg xmlns="http://www.w3.org/2000/svg" viewBox="0 0 1133.84 492.77"><defs><style>.cls-1{fill:#0064b4;}</style></defs><title>ZBT</title><g id="WORTMARKE"><polygon class="cls-1" points="574.73 191.57 574.73 164.21 410.44 164.21 410.44 191.57 528.25 191.57 410.44 301.1 410.44 328.5 574.73 328.5 574.73 301.1 456.92 301.1 574.73 191.57"/><polygon class="cls-1" points="805.25 164.22 805.25 191.59 871.32 191.59 871.32 328.49 902.11 328.49 902.11 191.59 969.54 191.59 969.54 164.22 805.25 164.22"/><path class="cls-1" d="M715.94,232.65h-71V191.58h71c23,0,32.32,6.86,32.32,20.54s-9.23,20.53-32.32,20.53m0,68.45h-71V260h71c23,0,32.32,6.86,32.32,20.54s-9.23,20.53-32.32,20.53m48-54.86c8.76-7.93,14.37-19.33,14.37-34.24,0-31.86-25.7-47.82-52.93-47.82H614v164.3H725.42c27.23,0,52.93-16.12,52.93-48,0-14.89-5.61-26.3-14.37-34.24"/></g><g id="BILDMARKE"><rect class="cls-1" x="164.3" y="314.79" width="191.71" height="27.39"/><rect class="cls-1" x="308.08" y="150.51" width="47.93" height="27.39"/><rect class="cls-1" x="212.22" y="259.9" width="143.78" height="27.39"/><rect class="cls-1" x="260.15" y="205.26" width="95.86" height="27.39"/></g></svg>